# xmcd
#
# Track frame offsets:
#	150
#	18877
#	34670
#	53493
#	78790
#	94928
#	123570
#	144018
#	168640
#
# Disc length: 2523 seconds
#
# Revision: 2
# Processed by: cddbd v1.5.2PL0 Copyright (c) Steve Scherf et al.
# Submitted via: dBpowerAMP V4.0
#
DISCID=6309d909
DTITLE=Jimmy Witherspoon - Night Life
DYEAR=1994
DGENRE=Blues
TTITLE0=Night Life
TTITLE1=Help Me
TTITLE2=Big Boss Man
TTITLE3=Cold, Cold Feeling
TTITLE4=Worried Life Blues
TTITLE5=Did You Ever
TTITLE6=Blues With a Feeling
TTITLE7=Big Legged Woman
TTITLE8=Bags Under My Eyes
EXTD=Ripped for WUVT-FM
EXTT0=
EXTT1=
EXTT2=
EXTT3=
EXTT4=
EXTT5=
EXTT6=
EXTT7=
EXTT8=
PLAYORDER=
